HIERARCHY
ROOT Hips
{
	OFFSET 0.000000 0.000000 0.000000
	CHANNELS 6 Xposition Yposition Zposition Zrotation Yrotation Xrotation 
	JOINT LHipJoint
	{
		OFFSET 0.000000 0.000000 0.000000
		CHANNELS 3 Zrotation Yrotation Xrotation
		JOINT LeftUpLeg
		{
			OFFSET 1.363060 -1.794630 0.839290
			CHANNELS 3 Zrotation Yrotation Xrotation
			JOINT LeftLeg
			{
				OFFSET 2.448110 -6.726130 0.000000
				CHANNELS 3 Zrotation Yrotation Xrotation
				JOINT LeftFoot
				{
					OFFSET 2.562200 -7.039590 0.000000
					CHANNELS 3 Zrotation Yrotation Xrotation
					JOINT LeftToeBase
					{
						OFFSET 0.157640 -0.433110 2.322550
						CHANNELS 3 Zrotation Yrotation Xrotation
						End Site
						{
							OFFSET 0.000000 0.000000 0.000000
						}
					}
				}
			}
		}
	}
	JOINT RHipJoint
	{
		OFFSET 0.000000 0.000000 0.000000
		CHANNELS 3 Zrotation Yrotation Xrotation
		JOINT RightUpLeg
		{
			OFFSET -1.305520 -1.794630 0.839290
			CHANNELS 3 Zrotation Yrotation Xrotation
			JOINT RightLeg
			{
				OFFSET -2.542530 -6.985550 0.000000
				CHANNELS 3 Zrotation Yrotation Xrotation
				JOINT RightFoot
				{
					OFFSET -2.568260 -7.056230 0.000000
					CHANNELS 3 Zrotation Yrotation Xrotation
					JOINT RightToeBase
					{
						OFFSET -0.164730 -0.452590 2.363150
						CHANNELS 3 Zrotation Yrotation Xrotation
						End Site
						{
							OFFSET 0.000000 0.000000 0.000000
						}
					}
				}
			}
		}
	}
	JOINT LowerBack
	{
		OFFSET 0.000000 0.000000 0.000000
		CHANNELS 3 Zrotation Yrotation Xrotation
		JOINT Spine
		{
			OFFSET 0.028270 2.035590 -0.193380
			CHANNELS 3 Zrotation Yrotation Xrotation
			JOINT Spine1
			{
				OFFSET 0.056720 2.048850 -0.042750
				CHANNELS 3 Zrotation Yrotation Xrotation
				JOINT Neck
				{
					OFFSET 0.000000 0.000000 0.000000
					CHANNELS 3 Zrotation Yrotation Xrotation
					JOINT Neck1
					{
						OFFSET -0.054170 1.746240 0.172020
						CHANNELS 3 Zrotation Yrotation Xrotation
						JOINT Head
						{
							OFFSET 0.104070 1.761360 -0.123970
							CHANNELS 3 Zrotation Yrotation Xrotation
							End Site
							{
								OFFSET 0.000000 0.000000 0.000000
							}
						}
					}
				}
				JOINT LeftShoulder
				{
					OFFSET 0.000000 0.000000 0.000000
					CHANNELS 3 Zrotation Yrotation Xrotation
					JOINT LeftArm
					{
						OFFSET 3.362410 1.200890 -0.311210
						CHANNELS 3 Zrotation Yrotation Xrotation
						JOINT LeftForeArm
						{
							OFFSET 4.983000 -0.000000 -0.000000
							CHANNELS 3 Zrotation Yrotation Xrotation
							JOINT LeftHand
							{
								OFFSET 3.483560 -0.000000 -0.000000
								CHANNELS 3 Zrotation Yrotation Xrotation
								JOINT LeftFingerBase
								{
									OFFSET 0.000000 0.000000 0.000000
									CHANNELS 3 Zrotation Yrotation Xrotation
									JOINT LeftHandIndex1
									{
										OFFSET 0.715260 -0.000000 -0.000000
										CHANNELS 3 Zrotation Yrotation Xrotation
										End Site
										{
											OFFSET 0.000000 0.000000 0.000000
										}
									}
								}
								JOINT LThumb
								{
									OFFSET 0.000000 0.000000 0.000000
									CHANNELS 3 Zrotation Yrotation Xrotation
									End Site
									{
										OFFSET 0.000000 0.000000 0.000000
									}
								}
							}
						}
					}
				}
				JOINT RightShoulder
				{
					OFFSET 0.000000 0.000000 0.000000
					CHANNELS 3 Zrotation Yrotation Xrotation
					JOINT RightArm
					{
						OFFSET -3.136600 1.374050 -0.404650
						CHANNELS 3 Zrotation Yrotation Xrotation
						JOINT RightForeArm
						{
							OFFSET -5.241900 -0.000000 -0.000000
							CHANNELS 3 Zrotation Yrotation Xrotation
							JOINT RightHand
							{
								OFFSET -3.444170 -0.000000 -0.000000
								CHANNELS 3 Zrotation Yrotation Xrotation
								JOINT RightFingerBase
								{
									OFFSET 0.000000 0.000000 0.000000
									CHANNELS 3 Zrotation Yrotation Xrotation
									JOINT RightHandIndex1
									{
										OFFSET -0.622530 -0.000000 -0.000000
										CHANNELS 3 Zrotation Yrotation Xrotation
										End Site
										{
											OFFSET 0.000000 0.000000 0.000000
										}
									}
								}
								JOINT RThumb
								{
									OFFSET 0.000000 0.000000 0.000000
									CHANNELS 3 Zrotation Yrotation Xrotation
									End Site
									{
										OFFSET 0.000000 0.000000 0.000000
									}
								}
							}
						}
					}
				}
			}
		}
	}
}
MOTION
Frames: 6
Frame Time: 0.008333
7.512655 17.802123 38.206003 -179.100792 2.137428 -170.257168 4.381776 3.001096 -0.038091 -22.984573 -13.443533 -5.036006 0.590064 5.649283 17.261357 0.885426 -4.431005 -15.464475 9.043500 -16.835600 -56.240500 -9.980409 -4.896236 -2.502410 31.242924 3.741354 -1.538809 0.119117 -2.235896 11.132445 -0.741724 2.713788 -14.063998 -2.640700 10.089400 -29.266700 -1.471227 2.352962 -3.527194 0.572525 2.427850 -5.265766 1.769808 1.236774 3.004351 -6.930502 -0.693181 -13.269534 5.832348 -1.256579 15.797799 1.647500 -0.604100 6.808300 1.922940 -4.881302 1.345342 -87.398139 1.520202 6.721196 2.808300 -10.159991 -1.025232 0.545183 1.071456 40.470013 27.318132 -18.008256 -9.791000 -7.125000 0.000000 0.000000 -0.429700 8.452700 0.361900 -1.564404 5.200074 1.771062 86.242797 -6.362358 -12.147207 -4.527516 21.460727 -3.512500 -0.660497 -2.216606 28.796620 -23.466139 -44.238967 16.461800 7.125000 0.000000 0.000000 21.331200 -73.202100 -14.430100 
7.516201 17.802982 38.219651 -179.132713 2.193630 -170.347806 4.364944 3.011328 -0.040597 -22.894325 -13.016757 -5.091771 0.561110 5.612954 17.150236 0.952818 -4.193533 -16.137330 9.632600 -17.198000 -58.253300 -9.979110 -4.885837 -2.503742 31.248971 3.873637 -1.455118 0.127642 -2.230659 11.123490 -0.733306 2.475543 -14.035592 -2.746700 10.273300 -29.866200 -1.590524 2.373194 -3.448290 0.564058 2.471522 -5.253894 1.802039 1.250329 3.003567 -6.722191 -0.796380 -13.506824 5.717203 -1.499029 16.781195 1.550200 -0.735500 7.244200 1.928764 -4.863796 1.329071 -87.427683 1.550980 7.557433 2.918981 -10.355459 -1.034662 0.523885 1.073475 39.570579 27.100235 -17.658953 -9.531100 -7.125000 0.000000 0.000000 -0.529400 8.884500 0.441300 -1.557284 5.256436 1.759035 86.421944 -6.622070 -10.278924 -4.881734 22.188426 -3.578546 -0.532708 -2.289644 25.701820 -23.101504 -42.683637 15.729700 7.125000 0.000000 0.000000 19.094100 -71.672000 -12.255000 
7.518028 17.803520 38.232116 -179.102948 2.262254 -170.364099 4.349091 3.011010 -0.045320 -22.790364 -12.880862 -5.125701 0.527696 5.594854 17.081179 1.027625 -3.693278 -16.949064 10.179300 -17.509400 -60.085900 -9.981996 -4.875738 -2.495475 31.308923 4.063835 -1.457651 0.132282 -2.242092 11.142433 -0.734955 2.361229 -14.075439 -2.633400 10.076600 -29.225000 -1.607531 2.356272 -3.472244 0.567402 2.453009 -5.232527 1.805329 1.229112 3.094580 -6.586739 -0.872051 -13.739700 5.660110 -1.691757 17.604836 1.493900 -0.840700 7.615200 1.938737 -4.839108 1.317278 -87.523041 1.470979 7.868923 2.985506 -10.463124 -1.042719 0.511700 1.075481 39.154216 27.079401 -17.442300 -9.418200 -7.125000 0.000000 0.000000 -0.516600 9.130000 0.428100 -1.559518 5.281740 1.748597 86.542740 -6.668290 -8.578569 -5.123558 22.732300 -3.609150 -0.416534 -2.349946 22.953692 -22.641680 -41.329750 14.993900 7.125000 0.000000 0.000000 17.659900 -70.266400 -10.771600 
7.517813 17.803735 38.245334 -179.106207 2.334909 -170.406887 4.337060 3.009666 -0.044724 -22.823473 -13.042644 -5.026347 0.489008 5.592784 17.058864 1.097523 -2.819891 -17.855490 10.751700 -17.811400 -61.972400 -9.979073 -4.867913 -2.494724 31.300053 4.150900 -1.486282 0.127829 -2.269191 11.210025 -0.734588 2.301679 -14.087046 -2.611900 10.038700 -29.102000 -1.621217 2.320304 -3.456460 0.565726 2.412426 -5.207444 1.789117 1.196080 3.185636 -6.594597 -0.896648 -13.983915 5.754605 -1.833953 18.490530 1.532300 -0.925500 8.020600 1.943217 -4.816579 1.304007 -87.628930 1.335525 7.932965 3.113058 -10.633747 -1.054568 0.513335 1.063290 39.292859 26.754235 -17.150314 -9.144500 -7.125000 0.000000 0.000000 -0.698100 9.519000 0.573100 -1.573194 5.298231 1.738546 86.627856 -6.635724 -6.879319 -5.304498 23.186503 -3.614414 -0.296249 -2.403322 20.157101 -22.103430 -39.955521 14.205300 7.125000 0.000000 0.000000 16.546700 -68.802600 -9.540300 
7.516953 17.804057 38.261238 -179.044806 2.402411 -170.422575 4.322675 2.999490 -0.042997 -22.784960 -13.343564 -4.973581 0.468793 5.665119 17.236801 1.206469 -1.987676 -19.102019 11.212700 -18.037600 -63.470400 -9.978678 -4.860890 -2.489197 31.371383 4.250656 -1.584757 0.117300 -2.332635 11.365520 -0.737752 2.245043 -14.131842 -2.650600 10.106800 -29.323200 -1.575333 2.313399 -3.452154 0.565871 2.400743 -5.183812 1.761842 1.183166 3.257736 -6.668242 -0.911398 -14.118770 5.974758 -1.993320 19.285121 1.631600 -1.016100 8.372100 1.946585 -4.808009 1.293507 -87.703672 1.219726 8.260086 3.352401 -10.964233 -1.082011 0.534496 1.036872 39.561250 26.055844 -17.177157 -8.871900 -7.125000 0.000000 0.000000 -1.171600 9.622900 0.959500 -1.592888 5.316960 1.721780 86.753069 -6.680169 -4.447104 -5.525566 23.749474 -3.562607 -0.078397 -2.463247 15.460788 -20.859415 -37.078215 12.526400 7.125000 0.000000 0.000000 14.990600 -65.703700 -7.570900 
7.515879 17.802660 38.276713 -178.997846 2.438748 -170.394671 4.310252 2.985326 -0.042361 -22.712970 -13.536823 -5.047832 0.488141 5.781479 17.541659 1.339852 -2.036717 -20.160488 11.274900 -18.067000 -63.671000 -9.976281 -4.847822 -2.476827 31.441432 4.439081 -1.706491 0.108404 -2.399411 11.521349 -0.755003 2.206959 -14.298074 -2.622600 10.057500 -29.163200 -1.546767 2.316212 -3.515129 0.555215 2.403833 -5.161886 1.704128 1.172619 3.356680 -6.616666 -0.979002 -14.244461 6.125961 -2.246029 20.033461 1.671600 -1.144700 8.704000 1.948007 -4.780536 1.282088 -87.723446 1.149652 9.191112 3.603723 -11.342170 -1.127855 0.542053 1.036810 39.012865 25.961837 -17.522376 -8.990700 -7.125000 0.000000 0.000000 -1.280200 9.256300 1.057900 -1.609197 5.315079 1.718948 86.878455 -6.498546 -4.608959 -5.849917 24.091240 -3.653843 -0.056642 -2.474102 16.770901 -19.829214 -37.210200 11.981500 7.125000 0.000000 0.000000 16.264400 -65.574200 -8.180400 
